<?xml version="1.0" standalone="no"?>
<!DOCTYPE svg PUBLIC "-//W3C//DTD SVG 20010904//EN"
 "http://www.w3.org/TR/2001/REC-SVG-20010904/DTD/svg10.dtd">
<svg version="1.0" xmlns="http://www.w3.org/2000/svg"
 width="580.000000pt" height="386.000000pt" viewBox="0 0 580.000000 386.000000"
 preserveAspectRatio="xMidYMid meet">

<g transform="translate(0.000000,386.000000) scale(0.100000,-0.100000)"
fill="#000000" stroke="none">
<path d="M2956 2833 c-3 -32 -8 -103 -11 -158 -4 -55 -9 -112 -11 -127 -4 -20
-1 -28 8 -28 10 0 19 45 36 178 12 97 22 180 22 185 0 4 -9 7 -19 7 -16 0 -20
-10 -25 -57z"/>
<path d="M2660 2838 c0 -32 116 -328 129 -328 7 0 11 6 8 15 -4 8 -28 84 -54
170 -38 123 -51 155 -65 155 -10 0 -18 -6 -18 -12z"/>
<path d="M3222 2734 c-72 -125 -132 -240 -132 -255 1 -22 33 21 121 164 72
115 79 131 66 144 -13 13 -19 7 -55 -53z"/>
<path d="M2410 2695 c-10 -12 8 -35 107 -140 114 -120 133 -137 133 -115 0 9
-218 270 -225 270 -2 0 -8 -7 -15 -15z"/>
<path d="M2840 2663 c0 -38 23 -143 31 -143 11 0 11 34 3 108 -5 34 -11 52
-20 52 -8 0 -14 -8 -14 -17z"/>
<path d="M3046 2593 c-11 -38 -21 -74 -24 -82 -3 -8 0 -12 8 -9 14 4 59 110
59 141 1 9 -5 17 -12 17 -7 0 -21 -30 -31 -67z"/>
<path d="M2641 2611 c-11 -7 -5 -22 24 -70 34 -55 55 -75 55 -53 0 4 -15 36
-33 69 -24 45 -36 60 -46 54z"/>
<path d="M3345 2490 c-122 -93 -151 -120 -126 -120 19 0 292 192 288 203 -8
27 -38 11 -162 -83z"/>
<path d="M3212 2490 c-28 -32 -52 -61 -52 -64 0 -19 32 1 78 47 42 42 50 56
40 65 -10 8 -25 -3 -66 -48z"/>
<path d="M2779 2491 c-184 -59 -302 -248 -271 -435 30 -182 156 -309 335 -337
309 -48 551 276 417 559 -87 184 -290 274 -481 213z m228 -26 c159 -47 274
-215 261 -379 -11 -131 -100 -256 -223 -313 -77 -35 -192 -39 -270 -9 l-50 20
70 11 c127 22 214 85 267 193 29 59 33 76 33 152 0 74 -4 93 -29 144 -37 75
-101 140 -169 172 l-52 24 56 0 c30 0 78 -7 106 -15z m-121 -40 c195 -87 242
-356 88 -509 -63 -62 -135 -91 -226 -91 -74 0 -78 1 -113 35 -20 19 -49 62
-66 95 -87 178 -13 394 167 485 42 22 74 19 150 -15z"/>
<path d="M3023 2425 c-12 -13 -5 -29 14 -32 16 -3 23 20 9 33 -9 8 -15 7 -23
-1z"/>
<path d="M3171 2273 c-1 -7 -8 -13 -16 -13 -12 0 -13 -4 -4 -18 13 -21 39 -25
39 -6 0 7 6 15 13 17 7 4 6 6 -5 6 -9 1 -19 7 -21 14 -4 10 -6 10 -6 0z"/>
<path d="M3158 2112 c-4 -15 -14 -22 -30 -22 -21 -1 -21 -2 -5 -11 14 -8 17
-18 12 -37 -6 -26 -6 -26 13 -9 13 12 22 15 27 8 11 -19 27 -12 20 8 -4 13 0
23 12 30 17 10 16 10 -3 11 -12 0 -25 10 -31 22 l-10 22 -5 -22z"/>
<path d="M2856 2362 c-14 -13 -4 -38 15 -39 12 -1 19 1 15 4 -3 3 -1 12 4 18
8 9 5 14 -9 18 -11 3 -22 2 -25 -1z"/>
<path d="M2684 2226 c-10 -26 4 -48 28 -44 17 2 23 10 23 28 0 18 -6 26 -23
28 -13 2 -25 -3 -28 -12z m34 -17 c-2 -6 -8 -10 -13 -10 -5 0 -11 4 -13 10 -2
6 4 11 13 11 9 0 15 -5 13 -11z"/>
<path d="M2969 2197 c-10 -8 -13 -20 -9 -37 4 -17 8 -21 14 -12 4 7 11 10 15
8 4 -3 12 4 19 15 10 15 10 19 -2 19 -8 0 -16 4 -18 9 -2 5 -10 4 -19 -2z"/>
<path d="M2838 2178 c-4 -10 -15 -18 -24 -18 -13 0 -14 -3 -4 -15 7 -8 10 -20
7 -27 -3 -9 5 -13 24 -13 20 0 29 5 29 16 0 8 5 20 12 27 9 9 7 12 -9 12 -13
0 -23 7 -25 18 -3 16 -4 16 -10 0z"/>
<path d="M2937 2014 c-9 -9 4 -34 18 -34 19 0 26 27 9 34 -19 7 -19 7 -27 0z"/>
<path d="M2784 1956 c-6 -7 -8 -18 -5 -26 9 -22 38 -23 43 -2 7 24 -22 44 -38
28z"/>
<path d="M2234 2465 c-4 -9 -4 -18 -1 -21 6 -6 297 -144 303 -144 2 0 4 6 4
13 0 6 -68 47 -150 90 -124 64 -151 75 -156 62z"/>
<path d="M2475 2469 c-4 -6 -3 -14 1 -18 48 -39 103 -81 108 -81 19 0 0 30
-36 61 -57 47 -65 51 -73 38z"/>
<path d="M3335 2339 c-55 -26 -81 -49 -57 -49 13 0 115 42 127 52 5 5 5 11 0
17 -6 5 -35 -3 -70 -20z"/>
<path d="M3446 2286 c-83 -24 -152 -48 -154 -54 -5 -16 -6 -17 176 25 129 29
162 40 160 52 -5 24 -23 22 -182 -23z"/>
<path d="M2385 2310 c-4 -6 -4 -14 -1 -18 7 -12 125 -46 133 -39 8 9 8 9 -64
40 -36 15 -65 22 -68 17z"/>
<path d="M2160 2211 c0 -16 11 -20 78 -26 42 -4 85 -9 94 -10 65 -13 156 -16
162 -6 4 6 4 11 -1 11 -4 0 -73 11 -153 25 -175 30 -180 30 -180 6z"/>
<path d="M3373 2153 c-88 -5 -79 -23 12 -23 62 0 73 2 69 15 -4 8 -9 14 -13
13 -3 -1 -34 -3 -68 -5z"/>
<path d="M2347 2103 c-18 -17 -1 -23 68 -23 60 0 75 3 75 15 0 12 -14 15 -68
15 -38 0 -72 -3 -75 -7z"/>
<path d="M3310 2064 c0 -7 54 -20 143 -33 78 -12 152 -24 165 -26 17 -4 22 -1
22 15 0 11 -1 20 -2 21 -2 0 -76 8 -165 17 -120 13 -163 15 -163 6z"/>
<path d="M2320 1978 c-80 -16 -148 -33 -152 -36 -4 -4 -3 -13 1 -21 8 -12 31
-9 138 18 197 49 204 51 198 61 -8 13 -17 12 -185 -22z"/>
<path d="M3290 1975 c0 -7 26 -22 59 -34 68 -25 71 -25 71 -8 0 7 -29 22 -65
34 -48 16 -65 18 -65 8z"/>
<path d="M2450 1922 c-77 -29 -77 -29 -63 -43 11 -11 143 37 143 52 0 17 -18
15 -80 -9z"/>
<path d="M3250 1901 c0 -12 291 -171 302 -165 23 15 -5 36 -137 102 -145 72
-165 80 -165 63z"/>
<path d="M2422 1767 c-92 -59 -141 -97 -140 -107 2 -8 9 -15 16 -15 16 0 282
193 282 206 0 17 -14 10 -158 -84z"/>
<path d="M3200 1833 c0 -11 97 -93 109 -93 22 0 10 19 -38 59 -46 39 -71 50
-71 34z"/>
<path d="M2551 1756 c-36 -36 -49 -56 -41 -61 11 -7 120 90 120 107 0 21 -31
3 -79 -46z"/>
<path d="M3140 1775 c0 -15 212 -265 225 -265 33 0 18 25 -87 141 -98 110
-138 145 -138 124z"/>
<path d="M2591 1608 c-91 -138 -100 -154 -84 -165 17 -13 18 -13 176 259 15
26 23 49 18 52 -5 4 -55 -62 -110 -146z"/>
<path d="M3070 1732 c0 -6 57 -122 64 -129 1 -1 7 2 14 6 10 6 4 23 -24 69
-32 55 -54 77 -54 54z"/>
<path d="M2741 1708 c-5 -13 -19 -47 -30 -77 -22 -55 -22 -67 1 -58 11 4 58
126 58 150 0 16 -21 5 -29 -15z"/>
<path d="M2995 1691 c3 -10 25 -87 49 -170 24 -84 46 -154 48 -157 7 -7 39 7
36 15 -2 4 -28 80 -58 169 -34 100 -60 162 -68 162 -9 0 -11 -7 -7 -19z"/>
<path d="M2811 1553 c-12 -82 -24 -163 -28 -180 -4 -28 -2 -33 15 -33 23 0 26
11 42 195 6 66 13 130 16 143 3 14 0 22 -9 22 -9 0 -20 -42 -36 -147z"/>
<path d="M2910 1643 c0 -70 9 -105 24 -100 11 4 11 36 1 115 -9 61 -25 52 -25
-15z"/>
</g>
</svg>
